<svg id="Artwork" xmlns="http://www.w3.org/2000/svg" xmlns:xlink="http://www.w3.org/1999/xlink" viewBox="0 0 414.461 223.794"><defs><style>.cls-1{fill:#ff4500;}.cls-2{fill:#fff;}</style><symbol id="icon_2" data-name="icon 2" viewBox="0 0 48 48"><circle class="cls-1" cx="24" cy="24" r="24"/><path class="cls-2" d="M40,24a3.5,3.5,0,0,0-5.927-2.518,17.139,17.139,0,0,0-9.36-2.969l1.594-7.5,5.209,1.108a2.5,2.5,0,1,0,.256-1.224L25.951,9.659a.625.625,0,0,0-.741.481l-1.78,8.37a17.189,17.189,0,0,0-9.5,2.966,3.5,3.5,0,1,0-3.852,5.715A6.9,6.9,0,0,0,10,28.25C10,33.635,16.264,38,24,38s14-4.365,14-9.75a6.942,6.942,0,0,0-.082-1.052A3.5,3.5,0,0,0,40,24ZM16,26.5A2.5,2.5,0,1,1,18.5,29,2.5,2.5,0,0,1,16,26.5Zm13.94,6.606c-1.706,1.7-4.976,1.837-5.937,1.837s-4.232-.133-5.936-1.837a.648.648,0,1,1,.917-.916c1.075,1.075,3.376,1.457,5.019,1.457s3.944-.382,5.022-1.458a.648.648,0,1,1,.915.917ZM29.5,29A2.5,2.5,0,1,1,32,26.5,2.5,2.5,0,0,1,29.5,29Z"/></symbol></defs><use width="48" height="48" transform="translate(44.486 55.625) scale(2.334)" xlink:href="#icon_2"/><path class="cls-2" d="M232.314,143.7h-13.8l-4.522-11.742H191.3L186.776,143.7h-13.8l24.2-58.469h10.948ZM202.8,100.458h-.318l-7.933,20.785H210.7Z"/><path class="cls-2" d="M237.61,143.7V85.226h9.52l20.15,28.243h.317l20.23-28.243h9.679V143.7h-13.09V124.258l.4-15.312H284.5l-15.709,22.77H266.17l-15.55-22.77h-.4l.318,15.312V143.7Z"/><path class="cls-2" d="M362.7,143.7H348.9l-4.522-11.742H321.684L317.162,143.7h-13.8l24.2-58.469H338.5Zm-29.512-43.237h-.317l-7.933,20.785h16.144Z"/><path class="cls-2" d="M365.717,76.011a8.149,8.149,0,0,1,3.129,3.157,9.766,9.766,0,0,1,0,9.126,8.149,8.149,0,0,1-3.135,3.151,9.388,9.388,0,0,1-8.973-.011,8.184,8.184,0,0,1-3.128-3.169,9.7,9.7,0,0,1,0-9.084,8.208,8.208,0,0,1,3.128-3.165,9.395,9.395,0,0,1,8.984-.005Zm-1.028,13.8a6.393,6.393,0,0,0,2.4-2.51,7.874,7.874,0,0,0,0-7.18,6.312,6.312,0,0,0-2.4-2.493,7.078,7.078,0,0,0-6.908,0,6.371,6.371,0,0,0-2.4,2.487,7.363,7.363,0,0,0-.87,3.6,7.257,7.257,0,0,0,.9,3.651,6.484,6.484,0,0,0,2.446,2.475,6.963,6.963,0,0,0,6.839-.029Zm-.353-6.121a3.019,3.019,0,0,1-1.264,1.094l2.128,3.634h-2.352l-1.74-3.164a2.92,2.92,0,0,1-.306.012h-1.059v3.152H357.6V79.2h3.364a4.651,4.651,0,0,1,2.805.741,2.494,2.494,0,0,1,1,2.14A2.94,2.94,0,0,1,364.336,83.69Zm-4.593-.142h1.482a1.622,1.622,0,0,0,1.117-.363,1.2,1.2,0,0,0,.412-.942,1.124,1.124,0,0,0-.417-.917,1.707,1.707,0,0,0-1.112-.341h-1.482Z"/></svg>